{"title":"Daisy Miller (Peter Bogdanovich, 1974)","uid":7373244,"size":734104540,"categoryP":"video","categoryS":"movies","magnet":"?xt=urn:btih:0a646b66e403ac44bba638460a8e166bd7553b7e&amp;dn=Daisy+Miller+%28Peter+Bogdanovich%2C+1974%29&amp;tr=udp%3A%2F%2Ftracker.openbittorrent.com%3A80&amp;tr=udp%3A%2F%2Fopen.demonii.com%3A1337&amp;tr=udp%3A%2F%2Ftracker.coppersurfer.tk%3A6969&amp;tr=udp%3A%2F%2Fexodus.desync.com%3A6969","seeders":1,"leechers":0,"uploader":"Aaaameida","files":-1,"time":1340294576,"description":"'In this comedy of manners, the American Winterbourne tries to figure out the bright and bubbly Daisy Miller, only to be helped and hindered by false judgments from their fellow friends.'\n- IMDB\n\nLanguage: English\n\nSubtitles: Portuguese\n &lt;a href=&quot;\nhttp://www.imdb.com/title/tt0071385&quot; rel=&quot;nofollow&quot; target=&quot;_NEW&quot;&gt;\nhttp://www.imdb.com/title/tt0071385&lt;/a&gt;\n\ni\n      Format : AVI\n      Format/Info : Audio Video Interleave\n      File size : 700 MiB\n      Duration : 1h 31mn\n      Overall bit rate : 1 070 Kbps\n      Writing application : VirtualDubMod 1.5.4.1 (build 2178/release)\n      Writing library : VirtualDubMod build 2178/release\n   Video #0\n      ID : 0\n      Format : MPEG-4 Visual\n      Format settings, BVOP : No\n      Format settings, QPel : No\n      Format settings, GMC : No warppoints\n      Format settings, Matrix : Default (H.263)\n      Codec ID : DX50\n      Codec ID/Hint : DivX 5\n      Duration : 1h 31mn\n      Bit rate : 999 Kbps\n      Width : 480 pixels\n      Height : 272 pixels\n      Display aspect ratio : 16:9\n      Frame rate : 23.976 fps\n      Resolution : 24 bits\n      Colorimetry : 4:2:0\n      Scan type : Progressive\n      Bits/(Pixel*Frame) : 0.319\n      Stream size : 654 MiB (93%)\n      Writing library : DivX 5.0.5 (UTC 2003-04-24)\n   Audio #1\n      ID : 1\n      Format : MPEG Audio\n      Format version : Version 2\n      Format profile : Layer 3\n      Codec ID : 55\n      Codec ID/Hint : MP3\n      Duration : 1h 31mn\n      Bit rate mode : Constant\n      Bit rate : 64.0 Kbps\n      Channel(s) : 2 channels\n      Sampling rate : 22.05 KHz\n      Resolution : 16 bits\n      Stream size : 41.9 MiB (6%)\n      Alignment : Split accross interleaves\n      Interleave, duration : 83 ms (2.00 video frames)\n      Interleave, preload duration : 500 ms\n      Writing library : LAME3.90.3\n      Language : English\t","torrent":{"xt":"urn:btih:0a646b66e403ac44bba638460a8e166bd7553b7e","amp;dn":"Daisy+Miller+%28Peter+Bogdanovich%2C+1974%29","amp;tr":["udp%3A%2F%2Ftracker.openbittorrent.com%3A80","udp%3A%2F%2Fopen.demonii.com%3A1337","udp%3A%2F%2Ftracker.coppersurfer.tk%3A6969","udp%3A%2F%2Fexodus.desync.com%3A6969"],"infoHash":"0a646b66e403ac44bba638460a8e166bd7553b7e","infoHashBuffer":{"type":"Buffer","data":[10,100,107,102,228,3,172,68,187,166,56,70,10,142,22,107,215,85,59,126]},"announce":[],"urlList":[]}}